<svg xmlns="http://www.w3.org/2000/svg" xmlns:xlink="http://www.w3.org/1999/xlink" contentStyleType="text/css" data-diagram-type="CLASS" height="405px" preserveAspectRatio="none" style="width:1171px;height:405px;background:#FFFFFF;" version="1.1" viewBox="0 0 1171 405" width="1171px" zoomAndPan="magnify"><defs/><g><!--class Diagnose--><g class="entity" data-entity="Diagnose" data-source-line="8" data-uid="ent0002" id="entity_Diagnose"><a href="StructureDefinition-lmdi-condition.html" target="_top" title="StructureDefinition-lmdi-condition.html" xlink:actuate="onRequest" xlink:href="StructureDefinition-lmdi-condition.html" xlink:show="new" xlink:title="StructureDefinition-lmdi-condition.html" xlink:type="simple"><rect fill="#FFFFFF" height="40.2656" rx="2.5" ry="2.5" style="stroke:#000000;stroke-width:0.5;" width="99.9473" x="318.78" y="241.53"/><ellipse cx="333.78" cy="261.6628" fill="#ADD1B2" rx="11" ry="11" style="stroke:#181818;stroke-width:1;"/><path d="M336.7488,267.3034 Q336.1706,267.6003 335.53,267.7409 Q334.8894,267.8972 334.1863,267.8972 Q331.6863,267.8972 330.3581,266.2566 Q329.0456,264.6003 329.0456,261.4753 Q329.0456,258.3503 330.3581,256.6941 Q331.6863,255.0378 334.1863,255.0378 Q334.8894,255.0378 335.53,255.1941 Q336.1863,255.3503 336.7488,255.6472 L336.7488,258.3659 Q336.1238,257.7878 335.53,257.5222 Q334.9363,257.2409 334.3113,257.2409 Q332.9675,257.2409 332.28,258.3191 Q331.5925,259.3816 331.5925,261.4753 Q331.5925,263.5691 332.28,264.6472 Q332.9675,265.7097 334.3113,265.7097 Q334.9363,265.7097 335.53,265.4441 Q336.1238,265.1628 336.7488,264.5847 L336.7488,267.3034 Z " fill="#000000"/><text fill="#000000" font-family="sans-serif" font-size="12" font-style="italic" lengthAdjust="spacing" textLength="71.9473" x="345.78" y="257.6687">&#171;Condition&#187;</text><text fill="#000000" font-family="sans-serif" font-size="14" lengthAdjust="spacing" textLength="65.4814" x="349.0129" y="273.4939">Diagnose</text></a></g><!--class Episode--><g class="entity" data-entity="Episode" data-source-line="9" data-uid="ent0003" id="entity_Episode"><a href="StructureDefinition-lmdi-encounter.html" target="_top" title="StructureDefinition-lmdi-encounter.html" xlink:actuate="onRequest" xlink:href="StructureDefinition-lmdi-encounter.html" xlink:show="new" xlink:title="StructureDefinition-lmdi-encounter.html" xlink:type="simple"><rect fill="#FFFFFF" height="40.2656" rx="2.5" ry="2.5" style="stroke:#000000;stroke-width:0.5;" width="104.043" x="36.73" y="241.53"/><ellipse cx="51.73" cy="261.6628" fill="#ADD1B2" rx="11" ry="11" style="stroke:#181818;stroke-width:1;"/><path d="M54.6988,267.3034 Q54.1206,267.6003 53.48,267.7409 Q52.8394,267.8972 52.1363,267.8972 Q49.6363,267.8972 48.3081,266.2566 Q46.9956,264.6003 46.9956,261.4753 Q46.9956,258.3503 48.3081,256.6941 Q49.6363,255.0378 52.1363,255.0378 Q52.8394,255.0378 53.48,255.1941 Q54.1363,255.3503 54.6988,255.6472 L54.6988,258.3659 Q54.0738,257.7878 53.48,257.5222 Q52.8863,257.2409 52.2613,257.2409 Q50.9175,257.2409 50.23,258.3191 Q49.5425,259.3816 49.5425,261.4753 Q49.5425,263.5691 50.23,264.6472 Q50.9175,265.7097 52.2613,265.7097 Q52.8863,265.7097 53.48,265.4441 Q54.0738,265.1628 54.6988,264.5847 L54.6988,267.3034 Z " fill="#000000"/><text fill="#000000" font-family="sans-serif" font-size="12" font-style="italic" lengthAdjust="spacing" textLength="76.043" x="63.73" y="257.6687">&#171;Encounter&#187;</text><text fill="#000000" font-family="sans-serif" font-size="14" lengthAdjust="spacing" textLength="54.9814" x="74.2608" y="273.4939">Episode</text></a></g><!--class Helsepersonell--><g class="entity" data-entity="Helsepersonell" data-source-line="10" data-uid="ent0004" id="entity_Helsepersonell"><a href="StructureDefinition-lmdi-practitioner.html" target="_top" title="StructureDefinition-lmdi-practitioner.html" xlink:actuate="onRequest" xlink:href="StructureDefinition-lmdi-practitioner.html" xlink:show="new" xlink:title="StructureDefinition-lmdi-practitioner.html" xlink:type="simple"><rect fill="#FFFFFF" height="40.2656" rx="2.5" ry="2.5" style="stroke:#000000;stroke-width:0.5;" width="135.3184" x="659.09" y="241.53"/><ellipse cx="674.09" cy="261.6628" fill="#ADD1B2" rx="11" ry="11" style="stroke:#181818;stroke-width:1;"/><path d="M677.0588,267.3034 Q676.4806,267.6003 675.84,267.7409 Q675.1994,267.8972 674.4963,267.8972 Q671.9963,267.8972 670.6681,266.2566 Q669.3556,264.6003 669.3556,261.4753 Q669.3556,258.3503 670.6681,256.6941 Q671.9963,255.0378 674.4963,255.0378 Q675.1994,255.0378 675.84,255.1941 Q676.4963,255.3503 677.0588,255.6472 L677.0588,258.3659 Q676.4338,257.7878 675.84,257.5222 Q675.2463,257.2409 674.6213,257.2409 Q673.2775,257.2409 672.59,258.3191 Q671.9025,259.3816 671.9025,261.4753 Q671.9025,263.5691 672.59,264.6472 Q673.2775,265.7097 674.6213,265.7097 Q675.2463,265.7097 675.84,265.4441 Q676.4338,265.1628 677.0588,264.5847 L677.0588,267.3034 Z " fill="#000000"/><text fill="#000000" font-family="sans-serif" font-size="12" font-style="italic" lengthAdjust="spacing" textLength="84.1465" x="697.6759" y="257.6687">&#171;Practitioner&#187;</text><text fill="#000000" font-family="sans-serif" font-size="14" lengthAdjust="spacing" textLength="103.3184" x="688.09" y="273.4939">Helsepersonell</text></a></g><!--class Legemiddel--><g class="entity" data-entity="Legemiddel" data-source-line="11" data-uid="ent0005" id="entity_Legemiddel"><a href="StructureDefinition-lmdi-medication.html" target="_top" title="StructureDefinition-lmdi-medication.html" xlink:actuate="onRequest" xlink:href="StructureDefinition-lmdi-medication.html" xlink:show="new" xlink:title="StructureDefinition-lmdi-medication.html" xlink:type="simple"><rect fill="#FFFFFF" height="40.2656" rx="2.5" ry="2.5" style="stroke:#000000;stroke-width:0.5;" width="113.7168" x="836.89" y="241.53"/><ellipse cx="851.89" cy="261.6628" fill="#ADD1B2" rx="11" ry="11" style="stroke:#181818;stroke-width:1;"/><path d="M854.8588,267.3034 Q854.2806,267.6003 853.64,267.7409 Q852.9994,267.8972 852.2963,267.8972 Q849.7963,267.8972 848.4681,266.2566 Q847.1556,264.6003 847.1556,261.4753 Q847.1556,258.3503 848.4681,256.6941 Q849.7963,255.0378 852.2963,255.0378 Q852.9994,255.0378 853.64,255.1941 Q854.2963,255.3503 854.8588,255.6472 L854.8588,258.3659 Q854.2338,257.7878 853.64,257.5222 Q853.0463,257.2409 852.4213,257.2409 Q851.0775,257.2409 850.39,258.3191 Q849.7025,259.3816 849.7025,261.4753 Q849.7025,263.5691 850.39,264.6472 Q851.0775,265.7097 852.4213,265.7097 Q853.0463,265.7097 853.64,265.4441 Q854.2338,265.1628 854.8588,264.5847 L854.8588,267.3034 Z " fill="#000000"/><text fill="#000000" font-family="sans-serif" font-size="12" font-style="italic" lengthAdjust="spacing" textLength="80.3086" x="866.5941" y="257.6687">&#171;Medication&#187;</text><text fill="#000000" font-family="sans-serif" font-size="14" lengthAdjust="spacing" textLength="81.7168" x="865.89" y="273.4939">Legemiddel</text></a></g><!--class Legemiddeladministrering--><g class="entity" data-entity="Legemiddeladministrering" data-source-line="12" data-uid="ent0006" id="entity_Legemiddeladministrering"><a href="StructureDefinition-lmdi-medicationadministration.html" target="_top" title="StructureDefinition-lmdi-medicationadministration.html" xlink:actuate="onRequest" xlink:href="StructureDefinition-lmdi-medicationadministration.html" xlink:show="new" xlink:title="StructureDefinition-lmdi-medicationadministration.html" xlink:type="simple"><rect fill="#FFFFFF" height="40.2656" rx="2.5" ry="2.5" style="stroke:#000000;stroke-width:0.5;" width="216.0303" x="173.73" y="7"/><ellipse cx="188.73" cy="27.1328" fill="#ADD1B2" rx="11" ry="11" style="stroke:#181818;stroke-width:1;"/><path d="M191.6988,32.7734 Q191.1206,33.0703 190.48,33.2109 Q189.8394,33.3672 189.1363,33.3672 Q186.6363,33.3672 185.3081,31.7266 Q183.9956,30.0703 183.9956,26.9453 Q183.9956,23.8203 185.3081,22.1641 Q186.6363,20.5078 189.1363,20.5078 Q189.8394,20.5078 190.48,20.6641 Q191.1363,20.8203 191.6988,21.1172 L191.6988,23.8359 Q191.0738,23.2578 190.48,22.9922 Q189.8863,22.7109 189.2613,22.7109 Q187.9175,22.7109 187.23,23.7891 Q186.5425,24.8516 186.5425,26.9453 Q186.5425,29.0391 187.23,30.1172 Q187.9175,31.1797 189.2613,31.1797 Q189.8863,31.1797 190.48,30.9141 Q191.0738,30.6328 191.6988,30.0547 L191.6988,32.7734 Z " fill="#000000"/><text fill="#000000" font-family="sans-serif" font-size="12" font-style="italic" lengthAdjust="spacing" textLength="168.3281" x="210.5811" y="23.1387">&#171;MedicationAdministration&#187;</text><text fill="#000000" font-family="sans-serif" font-size="14" lengthAdjust="spacing" textLength="184.0303" x="202.73" y="38.9639">Legemiddeladministrering</text></a></g><!--class Legemiddelrekvirering--><g class="entity" data-entity="Legemiddelrekvirering" data-source-line="13" data-uid="ent0007" id="entity_Legemiddelrekvirering"><a href="StructureDefinition-lmdi-medicationrequest.html" target="_top" title="StructureDefinition-lmdi-medicationrequest.html" xlink:actuate="onRequest" xlink:href="StructureDefinition-lmdi-medicationrequest.html" xlink:show="new" xlink:title="StructureDefinition-lmdi-medicationrequest.html" xlink:type="simple"><rect fill="#FFFFFF" height="40.2656" rx="2.5" ry="2.5" style="stroke:#000000;stroke-width:0.5;" width="190.1426" x="454.68" y="124.26"/><ellipse cx="469.68" cy="144.3928" fill="#ADD1B2" rx="11" ry="11" style="stroke:#181818;stroke-width:1;"/><path d="M472.6488,150.0334 Q472.0706,150.3303 471.43,150.4709 Q470.7894,150.6272 470.0863,150.6272 Q467.5863,150.6272 466.2581,148.9866 Q464.9456,147.3303 464.9456,144.2053 Q464.9456,141.0803 466.2581,139.4241 Q467.5863,137.7678 470.0863,137.7678 Q470.7894,137.7678 471.43,137.9241 Q472.0863,138.0803 472.6488,138.3772 L472.6488,141.0959 Q472.0238,140.5178 471.43,140.2522 Q470.8363,139.9709 470.2113,139.9709 Q468.8675,139.9709 468.18,141.0491 Q467.4925,142.1116 467.4925,144.2053 Q467.4925,146.2991 468.18,147.3772 Q468.8675,148.4397 470.2113,148.4397 Q470.8363,148.4397 471.43,148.1741 Q472.0238,147.8928 472.6488,147.3147 L472.6488,150.0334 Z " fill="#000000"/><text fill="#000000" font-family="sans-serif" font-size="12" font-style="italic" lengthAdjust="spacing" textLength="129.5918" x="497.9554" y="140.3987">&#171;MedicationRequest&#187;</text><text fill="#000000" font-family="sans-serif" font-size="14" lengthAdjust="spacing" textLength="158.1426" x="483.68" y="156.2239">Legemiddelrekvirering</text></a></g><!--class Organisasjon--><g class="entity" data-entity="Organisasjon" data-source-line="14" data-uid="ent0008" id="entity_Organisasjon"><a href="StructureDefinition-lmdi-organization.html" target="_top" title="StructureDefinition-lmdi-organization.html" xlink:actuate="onRequest" xlink:href="StructureDefinition-lmdi-organization.html" xlink:show="new" xlink:title="StructureDefinition-lmdi-organization.html" xlink:type="simple"><rect fill="#FFFFFF" height="40.2656" rx="2.5" ry="2.5" style="stroke:#000000;stroke-width:0.5;" width="123.499" x="7" y="358.79"/><ellipse cx="22" cy="378.9228" fill="#ADD1B2" rx="11" ry="11" style="stroke:#181818;stroke-width:1;"/><path d="M24.9688,384.5634 Q24.3906,384.8603 23.75,385.0009 Q23.1094,385.1572 22.4063,385.1572 Q19.9063,385.1572 18.5781,383.5166 Q17.2656,381.8603 17.2656,378.7353 Q17.2656,375.6103 18.5781,373.9541 Q19.9063,372.2978 22.4063,372.2978 Q23.1094,372.2978 23.75,372.4541 Q24.4063,372.6103 24.9688,372.9072 L24.9688,375.6259 Q24.3438,375.0478 23.75,374.7822 Q23.1563,374.5009 22.5313,374.5009 Q21.1875,374.5009 20.5,375.5791 Q19.8125,376.6416 19.8125,378.7353 Q19.8125,380.8291 20.5,381.9072 Q21.1875,382.9697 22.5313,382.9697 Q23.1563,382.9697 23.75,382.7041 Q24.3438,382.4228 24.9688,381.8447 L24.9688,384.5634 Z " fill="#000000"/><text fill="#000000" font-family="sans-serif" font-size="12" font-style="italic" lengthAdjust="spacing" textLength="91.6113" x="35.9438" y="374.9287">&#171;Organization&#187;</text><text fill="#000000" font-family="sans-serif" font-size="14" lengthAdjust="spacing" textLength="91.499" x="36" y="390.7539">Organisasjon</text></a></g><!--class Pasient--><g class="entity" data-entity="Pasient" data-source-line="15" data-uid="ent0009" id="entity_Pasient"><a href="StructureDefinition-lmdi-patient.html" target="_top" title="StructureDefinition-lmdi-patient.html" xlink:actuate="onRequest" xlink:href="StructureDefinition-lmdi-patient.html" xlink:show="new" xlink:title="StructureDefinition-lmdi-patient.html" xlink:type="simple"><rect fill="#FFFFFF" height="40.2656" rx="2.5" ry="2.5" style="stroke:#000000;stroke-width:0.5;" width="85.0059" x="326.25" y="358.79"/><ellipse cx="341.25" cy="378.9228" fill="#ADD1B2" rx="11" ry="11" style="stroke:#181818;stroke-width:1;"/><path d="M344.2188,384.5634 Q343.6406,384.8603 343,385.0009 Q342.3594,385.1572 341.6563,385.1572 Q339.1563,385.1572 337.8281,383.5166 Q336.5156,381.8603 336.5156,378.7353 Q336.5156,375.6103 337.8281,373.9541 Q339.1563,372.2978 341.6563,372.2978 Q342.3594,372.2978 343,372.4541 Q343.6563,372.6103 344.2188,372.9072 L344.2188,375.6259 Q343.5938,375.0478 343,374.7822 Q342.4063,374.5009 341.7813,374.5009 Q340.4375,374.5009 339.75,375.5791 Q339.0625,376.6416 339.0625,378.7353 Q339.0625,380.8291 339.75,381.9072 Q340.4375,382.9697 341.7813,382.9697 Q342.4063,382.9697 343,382.7041 Q343.5938,382.4228 344.2188,381.8447 L344.2188,384.5634 Z " fill="#000000"/><text fill="#000000" font-family="sans-serif" font-size="12" font-style="italic" lengthAdjust="spacing" textLength="57.0059" x="353.25" y="374.9287">&#171;Patient&#187;</text><text fill="#000000" font-family="sans-serif" font-size="14" lengthAdjust="spacing" textLength="51.1807" x="356.1626" y="390.7539">Pasient</text></a></g><!--class Virkestoff--><g class="entity" data-entity="Virkestoff" data-source-line="16" data-uid="ent0010" id="entity_Virkestoff"><a href="StructureDefinition-lmdi-substance.html" target="_top" title="StructureDefinition-lmdi-substance.html" xlink:actuate="onRequest" xlink:href="StructureDefinition-lmdi-substance.html" xlink:show="new" xlink:title="StructureDefinition-lmdi-substance.html" xlink:type="simple"><rect fill="#FFFFFF" height="40.2656" rx="2.5" ry="2.5" style="stroke:#000000;stroke-width:0.5;" width="105.4199" x="841.04" y="358.79"/><ellipse cx="856.04" cy="378.9228" fill="#ADD1B2" rx="11" ry="11" style="stroke:#181818;stroke-width:1;"/><path d="M859.0088,384.5634 Q858.4306,384.8603 857.79,385.0009 Q857.1494,385.1572 856.4463,385.1572 Q853.9463,385.1572 852.6181,383.5166 Q851.3056,381.8603 851.3056,378.7353 Q851.3056,375.6103 852.6181,373.9541 Q853.9463,372.2978 856.4463,372.2978 Q857.1494,372.2978 857.79,372.4541 Q858.4463,372.6103 859.0088,372.9072 L859.0088,375.6259 Q858.3838,375.0478 857.79,374.7822 Q857.1963,374.5009 856.5713,374.5009 Q855.2275,374.5009 854.54,375.5791 Q853.8525,376.6416 853.8525,378.7353 Q853.8525,380.8291 854.54,381.9072 Q855.2275,382.9697 856.5713,382.9697 Q857.1963,382.9697 857.79,382.7041 Q858.3838,382.4228 859.0088,381.8447 L859.0088,384.5634 Z " fill="#000000"/><text fill="#000000" font-family="sans-serif" font-size="12" font-style="italic" lengthAdjust="spacing" textLength="77.4199" x="868.04" y="374.9287">&#171;Substance&#187;</text><text fill="#000000" font-family="sans-serif" font-size="14" lengthAdjust="spacing" textLength="67.1494" x="873.1753" y="390.7539">Virkestoff</text></a></g><!--link Diagnose to Pasient--><g class="link" data-entity-1="Diagnose" data-entity-2="Pasient" data-source-line="18" data-uid="lnk11" id="link_Diagnose_Pasient"><path codeLine="18" d="M368.75,282.21 C368.75,303.54 368.75,331.45 368.75,352.66" fill="none" id="Diagnose-to-Pasient" style="stroke:#000000;stroke-width:1;"/><polygon fill="#000000" points="368.75,358.66,372.75,349.66,368.75,353.66,364.75,349.66,368.75,358.66" style="stroke:#000000;stroke-width:1;"/><text fill="#000000" font-family="sans-serif" font-size="13" lengthAdjust="spacing" textLength="47.1187" x="369.75" y="324.8569">subject</text><text fill="#000000" font-family="sans-serif" font-size="13" lengthAdjust="spacing" textLength="24.8066" x="341.6324" y="301.8324">1..1</text></g><!--link Episode to Organisasjon--><g class="link" data-entity-1="Episode" data-entity-2="Organisasjon" data-source-line="19" data-uid="lnk12" id="link_Episode_Organisasjon"><path codeLine="19" d="M77.28,282.04 C72.73,290.81 68.04,301.5 65.75,311.79 C62.33,327.16 62.6423,339.0719 64.4023,352.3619" fill="none" id="Episode-to-Organisasjon" style="stroke:#000000;stroke-width:1;"/><polygon fill="#000000" points="65.19,358.31,67.9738,348.8628,64.5336,353.3533,60.0431,349.913,65.19,358.31" style="stroke:#000000;stroke-width:1;"/><text fill="#000000" font-family="sans-serif" font-size="13" lengthAdjust="spacing" textLength="100.604" x="66.75" y="324.8569">serviceProvider</text><text fill="#000000" font-family="sans-serif" font-size="13" lengthAdjust="spacing" textLength="24.8066" x="46.7921" y="301.966">0..1</text></g><!--link Legemiddel to Virkestoff--><g class="link" data-entity-1="Legemiddel" data-entity-2="Virkestoff" data-source-line="20" data-uid="lnk13" id="link_Legemiddel_Virkestoff"><path codeLine="20" d="M893.75,282.21 C893.75,303.54 893.75,331.45 893.75,352.66" fill="none" id="Legemiddel-to-Virkestoff" style="stroke:#000000;stroke-width:1;"/><polygon fill="#000000" points="893.75,358.66,897.75,349.66,893.75,353.66,889.75,349.66,893.75,358.66" style="stroke:#000000;stroke-width:1;"/><text fill="#000000" font-family="sans-serif" font-size="13" lengthAdjust="spacing" textLength="166.48" x="894.75" y="324.8569">ingredient.itemReference</text><text fill="#000000" font-family="sans-serif" font-size="13" lengthAdjust="spacing" textLength="23.0356" x="867.6646" y="301.8324">0..*</text></g><!--link Legemiddel to Legemiddel--><g class="link" data-entity-1="Legemiddel" data-entity-2="Legemiddel" data-source-line="21" data-uid="lnk14" id="link_Legemiddel_Legemiddel"><path codeLine="21" d="M950.71,250.67 C970.06,250.61 985.61,254.28 985.61,261.66 C985.61,269.05 976.06,272.7286 956.71,272.6686" fill="none" id="Legemiddel-to-Legemiddel" style="stroke:#000000;stroke-width:1;"/><polygon fill="#000000" points="950.71,272.65,959.6976,276.6779,955.71,272.6655,959.7224,268.6779,950.71,272.65" style="stroke:#000000;stroke-width:1;"/><text fill="#000000" font-family="sans-serif" font-size="13" lengthAdjust="spacing" textLength="166.48" x="991.61" y="266.2269">ingredient.itemReference</text><text fill="#000000" font-family="sans-serif" font-size="13" lengthAdjust="spacing" textLength="23.0356" x="958.6279" y="245.6063">0..*</text></g><!--link Legemiddeladministrering to Legemiddel--><g class="link" data-entity-1="Legemiddeladministrering" data-entity-2="Legemiddel" data-source-line="22" data-uid="lnk15" id="link_Legemiddeladministrering_Legemiddel"><path codeLine="22" d="M390.2,31.4 C498.82,38.45 668.31,59.92 799.75,124.26 C841.95,144.92 854.86,154.07 878.75,194.53 C887.19,208.82 890.1825,221.4707 891.8025,235.3107" fill="none" id="Legemiddeladministrering-to-Legemiddel" style="stroke:#000000;stroke-width:1;"/><polygon fill="#000000" points="892.5,241.27,895.4266,231.866,891.9187,236.3039,887.4808,232.7961,892.5,241.27" style="stroke:#000000;stroke-width:1;"/><text fill="#000000" font-family="sans-serif" font-size="13" lengthAdjust="spacing" textLength="138.874" x="857.75" y="148.9669">medicationReference</text><text fill="#000000" font-family="sans-serif" font-size="13" lengthAdjust="spacing" textLength="24.8066" x="397.9425" y="28.264">1..1</text></g><!--link Legemiddeladministrering to Pasient--><g class="link" data-entity-1="Legemiddeladministrering" data-entity-2="Pasient" data-source-line="23" data-uid="lnk16" id="link_Legemiddeladministrering_Pasient"><path codeLine="23" d="M268.61,47.71 C247.59,81.6 210.8,153.13 231.75,211.53 C254.24,274.23 307.1388,326.2702 340.0588,354.5502" fill="none" id="Legemiddeladministrering-to-Pasient" style="stroke:#000000;stroke-width:1;"/><polygon fill="#000000" points="344.61,358.46,340.3896,349.5612,340.8173,355.2019,335.1766,355.6295,344.61,358.46" style="stroke:#000000;stroke-width:1;"/><text fill="#000000" font-family="sans-serif" font-size="13" lengthAdjust="spacing" textLength="47.1187" x="232.75" y="207.5969">subject</text><text fill="#000000" font-family="sans-serif" font-size="13" lengthAdjust="spacing" textLength="24.8066" x="237.9633" y="67.3405">1..1</text></g><!--link Legemiddeladministrering to Episode--><g class="link" data-entity-1="Legemiddeladministrering" data-entity-2="Episode" data-source-line="24" data-uid="lnk17" id="link_Legemiddeladministrering_Episode"><path codeLine="24" d="M217.01,47.63 C180.5,62.35 138.03,86.6 116.75,124.26 C95.46,161.94 90.5099,207.6156 89.3099,235.2956" fill="none" id="Legemiddeladministrering-to-Episode" style="stroke:#000000;stroke-width:1;"/><polygon fill="#000000" points="89.05,241.29,93.4361,232.4717,89.2666,236.2947,85.4436,232.1252,89.05,241.29" style="stroke:#000000;stroke-width:1;"/><text fill="#000000" font-family="sans-serif" font-size="13" lengthAdjust="spacing" textLength="49.2261" x="117.75" y="148.9669">context</text><text fill="#000000" font-family="sans-serif" font-size="13" lengthAdjust="spacing" textLength="24.8066" x="172.4958" y="67.239">0..1</text></g><!--link Legemiddeladministrering to Diagnose--><g class="link" data-entity-1="Legemiddeladministrering" data-entity-2="Diagnose" data-source-line="25" data-uid="lnk18" id="link_Legemiddeladministrering_Diagnose"><path codeLine="25" d="M278.02,47.68 C272.33,83.07 265.14,158.96 295.75,211.53 C302.9,223.81 309.4286,230.4279 321.2886,237.9779" fill="none" id="Legemiddeladministrering-to-Diagnose" style="stroke:#000000;stroke-width:1;"/><polygon fill="#000000" points="326.35,241.2,320.9059,232.9926,322.1321,238.5149,316.6098,239.7412,326.35,241.2" style="stroke:#000000;stroke-width:1;"/><text fill="#000000" font-family="sans-serif" font-size="13" lengthAdjust="spacing" textLength="110.6079" x="279.75" y="148.9669">reasonReference</text><text fill="#000000" font-family="sans-serif" font-size="13" lengthAdjust="spacing" textLength="23.0356" x="280.1143" y="67.3024">0..*</text></g><!--link Legemiddeladministrering to Legemiddelrekvirering--><g class="link" data-entity-1="Legemiddeladministrering" data-entity-2="Legemiddelrekvirering" data-source-line="26" data-uid="lnk19" id="link_Legemiddeladministrering_Legemiddelrekvirering"><path codeLine="26" d="M327.21,47.68 C376.64,68.94 449.6581,100.3495 498.9981,121.5695" fill="none" id="Legemiddeladministrering-to-Legemiddelrekvirering" style="stroke:#000000;stroke-width:1;"/><polygon fill="#000000" points="504.51,123.94,497.8226,116.7096,499.9168,121.9646,494.6619,124.0588,504.51,123.94" style="stroke:#000000;stroke-width:1;"/><text fill="#000000" font-family="sans-serif" font-size="13" lengthAdjust="spacing" textLength="49.7021" x="433.75" y="90.3269">request</text><text fill="#000000" font-family="sans-serif" font-size="13" lengthAdjust="spacing" textLength="24.8066" x="312.3121" y="67.3024">0..1</text></g><!--link Legemiddelrekvirering to Legemiddel--><g class="link" data-entity-1="Legemiddelrekvirering" data-entity-2="Legemiddel" data-source-line="27" data-uid="lnk20" id="link_Legemiddelrekvirering_Legemiddel"><path codeLine="27" d="M614.91,164.97 C641.21,173.37 671.68,183.72 698.75,194.53 C715.18,201.09 718.26,205.12 734.75,211.53 C767.88,224.39 800.1161,234.5735 830.6561,243.4035" fill="none" id="Legemiddelrekvirering-to-Legemiddel" style="stroke:#000000;stroke-width:1;"/><polygon fill="#000000" points="836.42,245.07,828.8851,238.7276,831.6167,243.6812,826.6631,246.4128,836.42,245.07" style="stroke:#000000;stroke-width:1;"/><text fill="#000000" font-family="sans-serif" font-size="13" lengthAdjust="spacing" textLength="138.874" x="735.75" y="207.5969">medicationReference</text><text fill="#000000" font-family="sans-serif" font-size="13" lengthAdjust="spacing" textLength="24.8066" x="605.3048" y="184.6005">1..1</text></g><!--link Legemiddelrekvirering to Pasient--><g class="link" data-entity-1="Legemiddelrekvirering" data-entity-2="Pasient" data-source-line="28" data-uid="lnk21" id="link_Legemiddelrekvirering_Pasient"><path codeLine="28" d="M555.01,164.75 C557.7,178.39 559.2,196.79 552.75,211.53 C522.87,279.79 454.5043,328.7087 409.9643,355.2487" fill="none" id="Legemiddelrekvirering-to-Pasient" style="stroke:#000000;stroke-width:1;"/><polygon fill="#000000" points="404.81,358.32,414.589,357.1493,409.1053,355.7606,410.494,350.2768,404.81,358.32" style="stroke:#000000;stroke-width:1;"/><text fill="#000000" font-family="sans-serif" font-size="13" lengthAdjust="spacing" textLength="47.1187" x="535.75" y="266.2269">subject</text><text fill="#000000" font-family="sans-serif" font-size="13" lengthAdjust="spacing" textLength="24.8066" x="529.2274" y="184.6704">1..1</text></g><!--link Legemiddelrekvirering to Episode--><g class="link" data-entity-1="Legemiddelrekvirering" data-entity-2="Episode" data-source-line="29" data-uid="lnk22" id="link_Legemiddelrekvirering_Episode"><path codeLine="29" d="M464.21,164.98 C426.33,173.79 381.26,184.45 340.75,194.53 C271.62,211.72 197.9547,231.2338 147.0547,244.9038" fill="none" id="Legemiddelrekvirering-to-Episode" style="stroke:#000000;stroke-width:1;"/><polygon fill="#000000" points="141.26,246.46,150.9895,247.9887,146.0889,245.1631,148.9145,240.2625,141.26,246.46" style="stroke:#000000;stroke-width:1;"/><text fill="#000000" font-family="sans-serif" font-size="13" lengthAdjust="spacing" textLength="66.2568" x="341.75" y="207.5969">encounter</text><text fill="#000000" font-family="sans-serif" font-size="13" lengthAdjust="spacing" textLength="24.8066" x="421.6931" y="182.4137">0..1</text></g><!--link Legemiddelrekvirering to Helsepersonell--><g class="link" data-entity-1="Legemiddelrekvirering" data-entity-2="Helsepersonell" data-source-line="30" data-uid="lnk23" id="link_Legemiddelrekvirering_Helsepersonell"><path codeLine="30" d="M570.81,165.01 C586.38,178.96 608.49,197.61 629.75,211.53 C646.49,222.49 660.6041,230.1762 677.7141,238.4962" fill="none" id="Legemiddelrekvirering-to-Helsepersonell" style="stroke:#000000;stroke-width:1;"/><polygon fill="#000000" points="683.11,241.12,676.7654,233.587,678.6134,238.9335,673.267,240.7815,683.11,241.12" style="stroke:#000000;stroke-width:1;"/><text fill="#000000" font-family="sans-serif" font-size="13" lengthAdjust="spacing" textLength="63.0449" x="630.75" y="207.5969">requester</text><text fill="#000000" font-family="sans-serif" font-size="13" lengthAdjust="spacing" textLength="24.8066" x="549.3529" y="184.6512">1..1</text></g><!--link Legemiddelrekvirering to Diagnose--><g class="link" data-entity-1="Legemiddelrekvirering" data-entity-2="Diagnose" data-source-line="31" data-uid="lnk24" id="link_Legemiddelrekvirering_Diagnose"><path codeLine="31" d="M493.93,164.98 C475.01,172.81 454.25,182.79 436.75,194.53 C417.19,207.65 402.2874,222.2835 389.3874,236.5935" fill="none" id="Legemiddelrekvirering-to-Diagnose" style="stroke:#000000;stroke-width:1;"/><polygon fill="#000000" points="385.37,241.05,394.3671,237.0435,388.7178,237.3362,388.4251,231.687,385.37,241.05" style="stroke:#000000;stroke-width:1;"/><text fill="#000000" font-family="sans-serif" font-size="13" lengthAdjust="spacing" textLength="110.6079" x="437.75" y="207.5969">reasonReference</text><text fill="#000000" font-family="sans-serif" font-size="13" lengthAdjust="spacing" textLength="23.0356" x="452.8422" y="184.6132">0..*</text></g><!--link Legemiddelrekvirering to Legemiddelrekvirering--><g class="link" data-entity-1="Legemiddelrekvirering" data-entity-2="Legemiddelrekvirering" data-source-line="32" data-uid="lnk25" id="link_Legemiddelrekvirering_Legemiddelrekvirering"><path codeLine="32" d="M645.32,133.77 C665.37,134.87 679.82,138.41 679.82,144.4 C679.82,150.38 671.361,153.5913 651.311,154.6913" fill="none" id="Legemiddelrekvirering-to-Legemiddelrekvirering" style="stroke:#000000;stroke-width:1;"/><polygon fill="#000000" points="645.32,155.02,654.5256,158.521,650.3125,154.7461,654.0874,150.533,645.32,155.02" style="stroke:#000000;stroke-width:1;"/><text fill="#000000" font-family="sans-serif" font-size="13" lengthAdjust="spacing" textLength="107.7197" x="685.82" y="148.9669">priorPrescription</text><text fill="#000000" font-family="sans-serif" font-size="13" lengthAdjust="spacing" textLength="24.8066" x="652.9118" y="129.5673">0..1</text></g><!--link Organisasjon to Organisasjon--><g class="link" data-entity-1="Organisasjon" data-entity-2="Organisasjon" data-source-line="33" data-uid="lnk26" id="link_Organisasjon_Organisasjon"><path codeLine="33" d="M130.63,367.94 C150.12,368.11 165.5,371.77 165.5,378.93 C165.5,386.08 156.1198,389.7007 136.6298,389.8607" fill="none" id="Organisasjon-to-Organisasjon" style="stroke:#000000;stroke-width:1;"/><polygon fill="#000000" points="130.63,389.91,139.6625,393.836,135.6298,389.869,139.5969,385.8363,130.63,389.91" style="stroke:#000000;stroke-width:1;"/><text fill="#000000" font-family="sans-serif" font-size="13" lengthAdjust="spacing" textLength="41.4692" x="171.5" y="383.4969">partOf</text><text fill="#000000" font-family="sans-serif" font-size="13" lengthAdjust="spacing" textLength="24.8066" x="138.2905" y="363.1077">0..1</text></g><!--SRC=[dPNBRjim44Nt-Wf2om8sacqH6CWBoA95Z0He5q5GqDH8PYIIwf1oN-Y_ToH6CaLOjbolREhUCyCh3hsL6J1GjVl55AWDe4riANNDaIicAcuj-vCm-jnmKHPe6ftTcieW-xgL3hedruZcXr-ygKZbvGOpm73rRv9utftaXJOMsDNLhT6PTDBerOgzl3mxR8Hh4EuWbxfRNrGgamlHovPRfwezuDkcuhfyVNq7tzVIcgpbtcj1dJh0urpePPxR-oFi0rGMQah6QAWgeg-H2zTXJXMe0wMl4S6YKf-W02Mp3Deodo6JWfzEHmqwNoA0JE9vfeXX7G9ANOoANVUFpYhDHwwuaQZSP5i8vKuUwEa9lZTWtTncqClZBa9wrC8Z5fmQvFRDQAhiV_wUaO09bBxU21MLMNChGRls3963lfquFbxakRqtGdwHMD9UJPuJzRdPMCUrWEDSsyiyEK0Cy6GOilHokRnCsMAn6bhuo592l85mQT8FJNeno4O9j5h0dHImHhEZsmRJ93YXhUs3jmLja8bU4j8BRRTF5urwWXoGvXMctC7gJ7TqA8DzZbagE8PdOGx5DUtRvzT7IZww-HpyFELxZs1uPMH4u7PcmnS7zXsEIaVh1YgaX8h_ZMw2SJotaUbWQCErFgDMT1_lzth4VNRY4orFnbsZDBX6i09btQQN9gEPEZ9hzCVj7lFq7m00]--></g></svg>